M48
;DRILL file {KiCad 4.0.1-stable} date 6/16/2016 1:06:17 PM
;FORMAT={-:-/ absolute / inch / decimal}
FMAT,2
INCH,TZ
T1C0.020
T2C0.035
T3C0.040
%
G90
G05
M72
T1
X0.94Y0.13
T2
X0.34Y0.08
X0.44Y0.08
X0.54Y0.08
X0.64Y0.08
X0.74Y0.08
X0.84Y0.08
T3
X0.24Y0.44
X0.24Y0.34
X0.34Y0.44
X0.34Y0.34
X0.44Y0.44
X0.44Y0.34
X0.54Y0.44
X0.54Y0.34
X0.64Y0.44
X0.64Y0.34
X0.74Y0.44
X0.74Y0.34
X0.84Y0.44
X0.84Y0.34
X0.94Y0.44
X0.94Y0.34
X1.04Y0.44
X1.04Y0.34
X1.14Y0.44
X1.14Y0.34
T0
M30
