G04 #@! TF.FileFunction,Copper,L2,Bot,Signal*
%FSLAX46Y46*%
G04 Gerber Fmt 4.6, Leading zero omitted, Abs format (unit mm)*
G04 Created by KiCad (PCBNEW 4.0.1-stable) date 6/16/2016 1:06:08 PM*
%MOMM*%
G01*
G04 APERTURE LIST*
%ADD10C,0.100000*%
%ADD11R,1.524000X1.524000*%
%ADD12C,1.524000*%
%ADD13R,1.727200X1.727200*%
%ADD14O,1.727200X1.727200*%
%ADD15C,0.762000*%
%ADD16C,0.304800*%
%ADD17C,0.203200*%
G04 APERTURE END LIST*
D10*
D11*
X8636000Y2032000D03*
D12*
X11176000Y2032000D03*
X13716000Y2032000D03*
X16256000Y2032000D03*
X18796000Y2032000D03*
X21336000Y2032000D03*
D13*
X6096000Y8636000D03*
D14*
X6096000Y11176000D03*
X8636000Y8636000D03*
X8636000Y11176000D03*
X11176000Y8636000D03*
X11176000Y11176000D03*
X13716000Y8636000D03*
X13716000Y11176000D03*
X16256000Y8636000D03*
X16256000Y11176000D03*
X18796000Y8636000D03*
X18796000Y11176000D03*
X21336000Y8636000D03*
X21336000Y11176000D03*
X23876000Y8636000D03*
X23876000Y11176000D03*
X26416000Y8636000D03*
X26416000Y11176000D03*
X28956000Y8636000D03*
X28956000Y11176000D03*
D15*
X23876000Y3302000D03*
D16*
X18796000Y2032000D02*
X20066000Y3302000D01*
X23368000Y3302000D02*
X23876000Y3302000D01*
X20066000Y3302000D02*
X23368000Y3302000D01*
D17*
G36*
X30886400Y9753600D02*
X29459615Y9753600D01*
X29446454Y9762394D01*
X28979886Y9855200D01*
X28932114Y9855200D01*
X28465546Y9762394D01*
X28452385Y9753600D01*
X26919615Y9753600D01*
X26906454Y9762394D01*
X26439886Y9855200D01*
X26392114Y9855200D01*
X25925546Y9762394D01*
X25912385Y9753600D01*
X24379615Y9753600D01*
X24366454Y9762394D01*
X23899886Y9855200D01*
X23852114Y9855200D01*
X23385546Y9762394D01*
X23372385Y9753600D01*
X21839615Y9753600D01*
X21826454Y9762394D01*
X21359886Y9855200D01*
X21312114Y9855200D01*
X20845546Y9762394D01*
X20832385Y9753600D01*
X19299615Y9753600D01*
X19286454Y9762394D01*
X18819886Y9855200D01*
X18772114Y9855200D01*
X18305546Y9762394D01*
X18292385Y9753600D01*
X16759615Y9753600D01*
X16746454Y9762394D01*
X16279886Y9855200D01*
X16232114Y9855200D01*
X15765546Y9762394D01*
X15752385Y9753600D01*
X14219615Y9753600D01*
X14206454Y9762394D01*
X13739886Y9855200D01*
X13692114Y9855200D01*
X13225546Y9762394D01*
X13212385Y9753600D01*
X12700000Y9753600D01*
X12660472Y9745595D01*
X12627172Y9722843D01*
X12605348Y9688927D01*
X12598400Y9652000D01*
X12598400Y9151477D01*
X12565720Y9102568D01*
X12472914Y8636000D01*
X12565720Y8169432D01*
X12598400Y8120523D01*
X12598400Y2032401D01*
X12598207Y1810671D01*
X12598400Y1810204D01*
X12598400Y863600D01*
X9753600Y863600D01*
X9753600Y1189211D01*
X10548738Y1189211D01*
X10635534Y1028833D01*
X11060570Y898367D01*
X11503179Y940487D01*
X11716466Y1028833D01*
X11803262Y1189211D01*
X11176000Y1816474D01*
X10548738Y1189211D01*
X9753600Y1189211D01*
X9753600Y1235601D01*
X9760566Y1270000D01*
X9760566Y2147430D01*
X10042367Y2147430D01*
X10084487Y1704821D01*
X10172833Y1491534D01*
X10333211Y1404738D01*
X10960474Y2032000D01*
X11391526Y2032000D01*
X12018789Y1404738D01*
X12179167Y1491534D01*
X12309633Y1916570D01*
X12267513Y2359179D01*
X12179167Y2572466D01*
X12018789Y2659262D01*
X11391526Y2032000D01*
X10960474Y2032000D01*
X10333211Y2659262D01*
X10172833Y2572466D01*
X10042367Y2147430D01*
X9760566Y2147430D01*
X9760566Y2794000D01*
X9753600Y2831020D01*
X9753600Y2874789D01*
X10548738Y2874789D01*
X11176000Y2247526D01*
X11803262Y2874789D01*
X11716466Y3035167D01*
X11291430Y3165633D01*
X10848821Y3123513D01*
X10635534Y3035167D01*
X10548738Y2874789D01*
X9753600Y2874789D01*
X9753600Y6858000D01*
X9745595Y6897528D01*
X9722843Y6930828D01*
X9688927Y6952652D01*
X9652000Y6959600D01*
X4165600Y6959600D01*
X4165600Y9499600D01*
X4869834Y9499600D01*
X4869834Y7772400D01*
X4894630Y7640623D01*
X4972510Y7519593D01*
X5091342Y7438399D01*
X5232400Y7409834D01*
X6959600Y7409834D01*
X7091377Y7434630D01*
X7212407Y7512510D01*
X7293601Y7631342D01*
X7322166Y7772400D01*
X7322166Y8296247D01*
X7465096Y8296247D01*
X7567792Y8048279D01*
X7874016Y7684231D01*
X8296245Y7465081D01*
X8483600Y7515248D01*
X8483600Y8483600D01*
X8788400Y8483600D01*
X8788400Y7515248D01*
X8975755Y7465081D01*
X9397984Y7684231D01*
X9704208Y8048279D01*
X9806904Y8296247D01*
X10005096Y8296247D01*
X10107792Y8048279D01*
X10414016Y7684231D01*
X10836245Y7465081D01*
X11023600Y7515248D01*
X11023600Y8483600D01*
X11328400Y8483600D01*
X11328400Y7515248D01*
X11515755Y7465081D01*
X11937984Y7684231D01*
X12244208Y8048279D01*
X12346904Y8296247D01*
X12295979Y8483600D01*
X11328400Y8483600D01*
X11023600Y8483600D01*
X10056021Y8483600D01*
X10005096Y8296247D01*
X9806904Y8296247D01*
X9755979Y8483600D01*
X8788400Y8483600D01*
X8483600Y8483600D01*
X7516021Y8483600D01*
X7465096Y8296247D01*
X7322166Y8296247D01*
X7322166Y8975753D01*
X7465096Y8975753D01*
X7516021Y8788400D01*
X8483600Y8788400D01*
X8483600Y9756752D01*
X8788400Y9756752D01*
X8788400Y8788400D01*
X9755979Y8788400D01*
X9806904Y8975753D01*
X10005096Y8975753D01*
X10056021Y8788400D01*
X11023600Y8788400D01*
X11023600Y9756752D01*
X11328400Y9756752D01*
X11328400Y8788400D01*
X12295979Y8788400D01*
X12346904Y8975753D01*
X12244208Y9223721D01*
X11937984Y9587769D01*
X11515755Y9806919D01*
X11328400Y9756752D01*
X11023600Y9756752D01*
X10836245Y9806919D01*
X10414016Y9587769D01*
X10107792Y9223721D01*
X10005096Y8975753D01*
X9806904Y8975753D01*
X9704208Y9223721D01*
X9397984Y9587769D01*
X8975755Y9806919D01*
X8788400Y9756752D01*
X8483600Y9756752D01*
X8296245Y9806919D01*
X7874016Y9587769D01*
X7567792Y9223721D01*
X7465096Y8975753D01*
X7322166Y8975753D01*
X7322166Y9499600D01*
X7297370Y9631377D01*
X7219490Y9752407D01*
X7100658Y9833601D01*
X6959600Y9862166D01*
X5232400Y9862166D01*
X5100623Y9837370D01*
X4979593Y9759490D01*
X4898399Y9640658D01*
X4869834Y9499600D01*
X4165600Y9499600D01*
X4165600Y11176000D01*
X4852914Y11176000D01*
X4945720Y10709432D01*
X5210009Y10313895D01*
X5605546Y10049606D01*
X6072114Y9956800D01*
X6119886Y9956800D01*
X6586454Y10049606D01*
X6981991Y10313895D01*
X7246280Y10709432D01*
X7271505Y10836247D01*
X7465096Y10836247D01*
X7567792Y10588279D01*
X7874016Y10224231D01*
X8296245Y10005081D01*
X8483600Y10055248D01*
X8483600Y11023600D01*
X8788400Y11023600D01*
X8788400Y10055248D01*
X8975755Y10005081D01*
X9397984Y10224231D01*
X9704208Y10588279D01*
X9806904Y10836247D01*
X10005096Y10836247D01*
X10107792Y10588279D01*
X10414016Y10224231D01*
X10836245Y10005081D01*
X11023600Y10055248D01*
X11023600Y11023600D01*
X11328400Y11023600D01*
X11328400Y10055248D01*
X11515755Y10005081D01*
X11937984Y10224231D01*
X12244208Y10588279D01*
X12346904Y10836247D01*
X12545096Y10836247D01*
X12647792Y10588279D01*
X12954016Y10224231D01*
X13376245Y10005081D01*
X13563600Y10055248D01*
X13563600Y11023600D01*
X13868400Y11023600D01*
X13868400Y10055248D01*
X14055755Y10005081D01*
X14477984Y10224231D01*
X14784208Y10588279D01*
X14886904Y10836247D01*
X15085096Y10836247D01*
X15187792Y10588279D01*
X15494016Y10224231D01*
X15916245Y10005081D01*
X16103600Y10055248D01*
X16103600Y11023600D01*
X16408400Y11023600D01*
X16408400Y10055248D01*
X16595755Y10005081D01*
X17017984Y10224231D01*
X17324208Y10588279D01*
X17426904Y10836247D01*
X17625096Y10836247D01*
X17727792Y10588279D01*
X18034016Y10224231D01*
X18456245Y10005081D01*
X18643600Y10055248D01*
X18643600Y11023600D01*
X18948400Y11023600D01*
X18948400Y10055248D01*
X19135755Y10005081D01*
X19557984Y10224231D01*
X19864208Y10588279D01*
X19966904Y10836247D01*
X20165096Y10836247D01*
X20267792Y10588279D01*
X20574016Y10224231D01*
X20996245Y10005081D01*
X21183600Y10055248D01*
X21183600Y11023600D01*
X21488400Y11023600D01*
X21488400Y10055248D01*
X21675755Y10005081D01*
X22097984Y10224231D01*
X22404208Y10588279D01*
X22506904Y10836247D01*
X22705096Y10836247D01*
X22807792Y10588279D01*
X23114016Y10224231D01*
X23536245Y10005081D01*
X23723600Y10055248D01*
X23723600Y11023600D01*
X24028400Y11023600D01*
X24028400Y10055248D01*
X24215755Y10005081D01*
X24637984Y10224231D01*
X24944208Y10588279D01*
X25046904Y10836247D01*
X25245096Y10836247D01*
X25347792Y10588279D01*
X25654016Y10224231D01*
X26076245Y10005081D01*
X26263600Y10055248D01*
X26263600Y11023600D01*
X26568400Y11023600D01*
X26568400Y10055248D01*
X26755755Y10005081D01*
X27177984Y10224231D01*
X27484208Y10588279D01*
X27586904Y10836247D01*
X27785096Y10836247D01*
X27887792Y10588279D01*
X28194016Y10224231D01*
X28616245Y10005081D01*
X28803600Y10055248D01*
X28803600Y11023600D01*
X29108400Y11023600D01*
X29108400Y10055248D01*
X29295755Y10005081D01*
X29717984Y10224231D01*
X30024208Y10588279D01*
X30126904Y10836247D01*
X30075979Y11023600D01*
X29108400Y11023600D01*
X28803600Y11023600D01*
X27836021Y11023600D01*
X27785096Y10836247D01*
X27586904Y10836247D01*
X27535979Y11023600D01*
X26568400Y11023600D01*
X26263600Y11023600D01*
X25296021Y11023600D01*
X25245096Y10836247D01*
X25046904Y10836247D01*
X24995979Y11023600D01*
X24028400Y11023600D01*
X23723600Y11023600D01*
X22756021Y11023600D01*
X22705096Y10836247D01*
X22506904Y10836247D01*
X22455979Y11023600D01*
X21488400Y11023600D01*
X21183600Y11023600D01*
X20216021Y11023600D01*
X20165096Y10836247D01*
X19966904Y10836247D01*
X19915979Y11023600D01*
X18948400Y11023600D01*
X18643600Y11023600D01*
X17676021Y11023600D01*
X17625096Y10836247D01*
X17426904Y10836247D01*
X17375979Y11023600D01*
X16408400Y11023600D01*
X16103600Y11023600D01*
X15136021Y11023600D01*
X15085096Y10836247D01*
X14886904Y10836247D01*
X14835979Y11023600D01*
X13868400Y11023600D01*
X13563600Y11023600D01*
X12596021Y11023600D01*
X12545096Y10836247D01*
X12346904Y10836247D01*
X12295979Y11023600D01*
X11328400Y11023600D01*
X11023600Y11023600D01*
X10056021Y11023600D01*
X10005096Y10836247D01*
X9806904Y10836247D01*
X9755979Y11023600D01*
X8788400Y11023600D01*
X8483600Y11023600D01*
X7516021Y11023600D01*
X7465096Y10836247D01*
X7271505Y10836247D01*
X7339086Y11176000D01*
X7271506Y11515753D01*
X7465096Y11515753D01*
X7516021Y11328400D01*
X8483600Y11328400D01*
X8483600Y12296752D01*
X8788400Y12296752D01*
X8788400Y11328400D01*
X9755979Y11328400D01*
X9806904Y11515753D01*
X10005096Y11515753D01*
X10056021Y11328400D01*
X11023600Y11328400D01*
X11023600Y12296752D01*
X11328400Y12296752D01*
X11328400Y11328400D01*
X12295979Y11328400D01*
X12346904Y11515753D01*
X12545096Y11515753D01*
X12596021Y11328400D01*
X13563600Y11328400D01*
X13563600Y12296752D01*
X13868400Y12296752D01*
X13868400Y11328400D01*
X14835979Y11328400D01*
X14886904Y11515753D01*
X15085096Y11515753D01*
X15136021Y11328400D01*
X16103600Y11328400D01*
X16103600Y12296752D01*
X16408400Y12296752D01*
X16408400Y11328400D01*
X17375979Y11328400D01*
X17426904Y11515753D01*
X17625096Y11515753D01*
X17676021Y11328400D01*
X18643600Y11328400D01*
X18643600Y12296752D01*
X18948400Y12296752D01*
X18948400Y11328400D01*
X19915979Y11328400D01*
X19966904Y11515753D01*
X20165096Y11515753D01*
X20216021Y11328400D01*
X21183600Y11328400D01*
X21183600Y12296752D01*
X21488400Y12296752D01*
X21488400Y11328400D01*
X22455979Y11328400D01*
X22506904Y11515753D01*
X22705096Y11515753D01*
X22756021Y11328400D01*
X23723600Y11328400D01*
X23723600Y12296752D01*
X24028400Y12296752D01*
X24028400Y11328400D01*
X24995979Y11328400D01*
X25046904Y11515753D01*
X25245096Y11515753D01*
X25296021Y11328400D01*
X26263600Y11328400D01*
X26263600Y12296752D01*
X26568400Y12296752D01*
X26568400Y11328400D01*
X27535979Y11328400D01*
X27586904Y11515753D01*
X27785096Y11515753D01*
X27836021Y11328400D01*
X28803600Y11328400D01*
X28803600Y12296752D01*
X29108400Y12296752D01*
X29108400Y11328400D01*
X30075979Y11328400D01*
X30126904Y11515753D01*
X30024208Y11763721D01*
X29717984Y12127769D01*
X29295755Y12346919D01*
X29108400Y12296752D01*
X28803600Y12296752D01*
X28616245Y12346919D01*
X28194016Y12127769D01*
X27887792Y11763721D01*
X27785096Y11515753D01*
X27586904Y11515753D01*
X27484208Y11763721D01*
X27177984Y12127769D01*
X26755755Y12346919D01*
X26568400Y12296752D01*
X26263600Y12296752D01*
X26076245Y12346919D01*
X25654016Y12127769D01*
X25347792Y11763721D01*
X25245096Y11515753D01*
X25046904Y11515753D01*
X24944208Y11763721D01*
X24637984Y12127769D01*
X24215755Y12346919D01*
X24028400Y12296752D01*
X23723600Y12296752D01*
X23536245Y12346919D01*
X23114016Y12127769D01*
X22807792Y11763721D01*
X22705096Y11515753D01*
X22506904Y11515753D01*
X22404208Y11763721D01*
X22097984Y12127769D01*
X21675755Y12346919D01*
X21488400Y12296752D01*
X21183600Y12296752D01*
X20996245Y12346919D01*
X20574016Y12127769D01*
X20267792Y11763721D01*
X20165096Y11515753D01*
X19966904Y11515753D01*
X19864208Y11763721D01*
X19557984Y12127769D01*
X19135755Y12346919D01*
X18948400Y12296752D01*
X18643600Y12296752D01*
X18456245Y12346919D01*
X18034016Y12127769D01*
X17727792Y11763721D01*
X17625096Y11515753D01*
X17426904Y11515753D01*
X17324208Y11763721D01*
X17017984Y12127769D01*
X16595755Y12346919D01*
X16408400Y12296752D01*
X16103600Y12296752D01*
X15916245Y12346919D01*
X15494016Y12127769D01*
X15187792Y11763721D01*
X15085096Y11515753D01*
X14886904Y11515753D01*
X14784208Y11763721D01*
X14477984Y12127769D01*
X14055755Y12346919D01*
X13868400Y12296752D01*
X13563600Y12296752D01*
X13376245Y12346919D01*
X12954016Y12127769D01*
X12647792Y11763721D01*
X12545096Y11515753D01*
X12346904Y11515753D01*
X12244208Y11763721D01*
X11937984Y12127769D01*
X11515755Y12346919D01*
X11328400Y12296752D01*
X11023600Y12296752D01*
X10836245Y12346919D01*
X10414016Y12127769D01*
X10107792Y11763721D01*
X10005096Y11515753D01*
X9806904Y11515753D01*
X9704208Y11763721D01*
X9397984Y12127769D01*
X8975755Y12346919D01*
X8788400Y12296752D01*
X8483600Y12296752D01*
X8296245Y12346919D01*
X7874016Y12127769D01*
X7567792Y11763721D01*
X7465096Y11515753D01*
X7271506Y11515753D01*
X7246280Y11642568D01*
X6981991Y12038105D01*
X6586454Y12302394D01*
X6119886Y12395200D01*
X6072114Y12395200D01*
X5605546Y12302394D01*
X5210009Y12038105D01*
X4945720Y11642568D01*
X4852914Y11176000D01*
X4165600Y11176000D01*
X4165600Y12852400D01*
X30886400Y12852400D01*
X30886400Y9753600D01*
X30886400Y9753600D01*
G37*
X30886400Y9753600D02*
X29459615Y9753600D01*
X29446454Y9762394D01*
X28979886Y9855200D01*
X28932114Y9855200D01*
X28465546Y9762394D01*
X28452385Y9753600D01*
X26919615Y9753600D01*
X26906454Y9762394D01*
X26439886Y9855200D01*
X26392114Y9855200D01*
X25925546Y9762394D01*
X25912385Y9753600D01*
X24379615Y9753600D01*
X24366454Y9762394D01*
X23899886Y9855200D01*
X23852114Y9855200D01*
X23385546Y9762394D01*
X23372385Y9753600D01*
X21839615Y9753600D01*
X21826454Y9762394D01*
X21359886Y9855200D01*
X21312114Y9855200D01*
X20845546Y9762394D01*
X20832385Y9753600D01*
X19299615Y9753600D01*
X19286454Y9762394D01*
X18819886Y9855200D01*
X18772114Y9855200D01*
X18305546Y9762394D01*
X18292385Y9753600D01*
X16759615Y9753600D01*
X16746454Y9762394D01*
X16279886Y9855200D01*
X16232114Y9855200D01*
X15765546Y9762394D01*
X15752385Y9753600D01*
X14219615Y9753600D01*
X14206454Y9762394D01*
X13739886Y9855200D01*
X13692114Y9855200D01*
X13225546Y9762394D01*
X13212385Y9753600D01*
X12700000Y9753600D01*
X12660472Y9745595D01*
X12627172Y9722843D01*
X12605348Y9688927D01*
X12598400Y9652000D01*
X12598400Y9151477D01*
X12565720Y9102568D01*
X12472914Y8636000D01*
X12565720Y8169432D01*
X12598400Y8120523D01*
X12598400Y2032401D01*
X12598207Y1810671D01*
X12598400Y1810204D01*
X12598400Y863600D01*
X9753600Y863600D01*
X9753600Y1189211D01*
X10548738Y1189211D01*
X10635534Y1028833D01*
X11060570Y898367D01*
X11503179Y940487D01*
X11716466Y1028833D01*
X11803262Y1189211D01*
X11176000Y1816474D01*
X10548738Y1189211D01*
X9753600Y1189211D01*
X9753600Y1235601D01*
X9760566Y1270000D01*
X9760566Y2147430D01*
X10042367Y2147430D01*
X10084487Y1704821D01*
X10172833Y1491534D01*
X10333211Y1404738D01*
X10960474Y2032000D01*
X11391526Y2032000D01*
X12018789Y1404738D01*
X12179167Y1491534D01*
X12309633Y1916570D01*
X12267513Y2359179D01*
X12179167Y2572466D01*
X12018789Y2659262D01*
X11391526Y2032000D01*
X10960474Y2032000D01*
X10333211Y2659262D01*
X10172833Y2572466D01*
X10042367Y2147430D01*
X9760566Y2147430D01*
X9760566Y2794000D01*
X9753600Y2831020D01*
X9753600Y2874789D01*
X10548738Y2874789D01*
X11176000Y2247526D01*
X11803262Y2874789D01*
X11716466Y3035167D01*
X11291430Y3165633D01*
X10848821Y3123513D01*
X10635534Y3035167D01*
X10548738Y2874789D01*
X9753600Y2874789D01*
X9753600Y6858000D01*
X9745595Y6897528D01*
X9722843Y6930828D01*
X9688927Y6952652D01*
X9652000Y6959600D01*
X4165600Y6959600D01*
X4165600Y9499600D01*
X4869834Y9499600D01*
X4869834Y7772400D01*
X4894630Y7640623D01*
X4972510Y7519593D01*
X5091342Y7438399D01*
X5232400Y7409834D01*
X6959600Y7409834D01*
X7091377Y7434630D01*
X7212407Y7512510D01*
X7293601Y7631342D01*
X7322166Y7772400D01*
X7322166Y8296247D01*
X7465096Y8296247D01*
X7567792Y8048279D01*
X7874016Y7684231D01*
X8296245Y7465081D01*
X8483600Y7515248D01*
X8483600Y8483600D01*
X8788400Y8483600D01*
X8788400Y7515248D01*
X8975755Y7465081D01*
X9397984Y7684231D01*
X9704208Y8048279D01*
X9806904Y8296247D01*
X10005096Y8296247D01*
X10107792Y8048279D01*
X10414016Y7684231D01*
X10836245Y7465081D01*
X11023600Y7515248D01*
X11023600Y8483600D01*
X11328400Y8483600D01*
X11328400Y7515248D01*
X11515755Y7465081D01*
X11937984Y7684231D01*
X12244208Y8048279D01*
X12346904Y8296247D01*
X12295979Y8483600D01*
X11328400Y8483600D01*
X11023600Y8483600D01*
X10056021Y8483600D01*
X10005096Y8296247D01*
X9806904Y8296247D01*
X9755979Y8483600D01*
X8788400Y8483600D01*
X8483600Y8483600D01*
X7516021Y8483600D01*
X7465096Y8296247D01*
X7322166Y8296247D01*
X7322166Y8975753D01*
X7465096Y8975753D01*
X7516021Y8788400D01*
X8483600Y8788400D01*
X8483600Y9756752D01*
X8788400Y9756752D01*
X8788400Y8788400D01*
X9755979Y8788400D01*
X9806904Y8975753D01*
X10005096Y8975753D01*
X10056021Y8788400D01*
X11023600Y8788400D01*
X11023600Y9756752D01*
X11328400Y9756752D01*
X11328400Y8788400D01*
X12295979Y8788400D01*
X12346904Y8975753D01*
X12244208Y9223721D01*
X11937984Y9587769D01*
X11515755Y9806919D01*
X11328400Y9756752D01*
X11023600Y9756752D01*
X10836245Y9806919D01*
X10414016Y9587769D01*
X10107792Y9223721D01*
X10005096Y8975753D01*
X9806904Y8975753D01*
X9704208Y9223721D01*
X9397984Y9587769D01*
X8975755Y9806919D01*
X8788400Y9756752D01*
X8483600Y9756752D01*
X8296245Y9806919D01*
X7874016Y9587769D01*
X7567792Y9223721D01*
X7465096Y8975753D01*
X7322166Y8975753D01*
X7322166Y9499600D01*
X7297370Y9631377D01*
X7219490Y9752407D01*
X7100658Y9833601D01*
X6959600Y9862166D01*
X5232400Y9862166D01*
X5100623Y9837370D01*
X4979593Y9759490D01*
X4898399Y9640658D01*
X4869834Y9499600D01*
X4165600Y9499600D01*
X4165600Y11176000D01*
X4852914Y11176000D01*
X4945720Y10709432D01*
X5210009Y10313895D01*
X5605546Y10049606D01*
X6072114Y9956800D01*
X6119886Y9956800D01*
X6586454Y10049606D01*
X6981991Y10313895D01*
X7246280Y10709432D01*
X7271505Y10836247D01*
X7465096Y10836247D01*
X7567792Y10588279D01*
X7874016Y10224231D01*
X8296245Y10005081D01*
X8483600Y10055248D01*
X8483600Y11023600D01*
X8788400Y11023600D01*
X8788400Y10055248D01*
X8975755Y10005081D01*
X9397984Y10224231D01*
X9704208Y10588279D01*
X9806904Y10836247D01*
X10005096Y10836247D01*
X10107792Y10588279D01*
X10414016Y10224231D01*
X10836245Y10005081D01*
X11023600Y10055248D01*
X11023600Y11023600D01*
X11328400Y11023600D01*
X11328400Y10055248D01*
X11515755Y10005081D01*
X11937984Y10224231D01*
X12244208Y10588279D01*
X12346904Y10836247D01*
X12545096Y10836247D01*
X12647792Y10588279D01*
X12954016Y10224231D01*
X13376245Y10005081D01*
X13563600Y10055248D01*
X13563600Y11023600D01*
X13868400Y11023600D01*
X13868400Y10055248D01*
X14055755Y10005081D01*
X14477984Y10224231D01*
X14784208Y10588279D01*
X14886904Y10836247D01*
X15085096Y10836247D01*
X15187792Y10588279D01*
X15494016Y10224231D01*
X15916245Y10005081D01*
X16103600Y10055248D01*
X16103600Y11023600D01*
X16408400Y11023600D01*
X16408400Y10055248D01*
X16595755Y10005081D01*
X17017984Y10224231D01*
X17324208Y10588279D01*
X17426904Y10836247D01*
X17625096Y10836247D01*
X17727792Y10588279D01*
X18034016Y10224231D01*
X18456245Y10005081D01*
X18643600Y10055248D01*
X18643600Y11023600D01*
X18948400Y11023600D01*
X18948400Y10055248D01*
X19135755Y10005081D01*
X19557984Y10224231D01*
X19864208Y10588279D01*
X19966904Y10836247D01*
X20165096Y10836247D01*
X20267792Y10588279D01*
X20574016Y10224231D01*
X20996245Y10005081D01*
X21183600Y10055248D01*
X21183600Y11023600D01*
X21488400Y11023600D01*
X21488400Y10055248D01*
X21675755Y10005081D01*
X22097984Y10224231D01*
X22404208Y10588279D01*
X22506904Y10836247D01*
X22705096Y10836247D01*
X22807792Y10588279D01*
X23114016Y10224231D01*
X23536245Y10005081D01*
X23723600Y10055248D01*
X23723600Y11023600D01*
X24028400Y11023600D01*
X24028400Y10055248D01*
X24215755Y10005081D01*
X24637984Y10224231D01*
X24944208Y10588279D01*
X25046904Y10836247D01*
X25245096Y10836247D01*
X25347792Y10588279D01*
X25654016Y10224231D01*
X26076245Y10005081D01*
X26263600Y10055248D01*
X26263600Y11023600D01*
X26568400Y11023600D01*
X26568400Y10055248D01*
X26755755Y10005081D01*
X27177984Y10224231D01*
X27484208Y10588279D01*
X27586904Y10836247D01*
X27785096Y10836247D01*
X27887792Y10588279D01*
X28194016Y10224231D01*
X28616245Y10005081D01*
X28803600Y10055248D01*
X28803600Y11023600D01*
X29108400Y11023600D01*
X29108400Y10055248D01*
X29295755Y10005081D01*
X29717984Y10224231D01*
X30024208Y10588279D01*
X30126904Y10836247D01*
X30075979Y11023600D01*
X29108400Y11023600D01*
X28803600Y11023600D01*
X27836021Y11023600D01*
X27785096Y10836247D01*
X27586904Y10836247D01*
X27535979Y11023600D01*
X26568400Y11023600D01*
X26263600Y11023600D01*
X25296021Y11023600D01*
X25245096Y10836247D01*
X25046904Y10836247D01*
X24995979Y11023600D01*
X24028400Y11023600D01*
X23723600Y11023600D01*
X22756021Y11023600D01*
X22705096Y10836247D01*
X22506904Y10836247D01*
X22455979Y11023600D01*
X21488400Y11023600D01*
X21183600Y11023600D01*
X20216021Y11023600D01*
X20165096Y10836247D01*
X19966904Y10836247D01*
X19915979Y11023600D01*
X18948400Y11023600D01*
X18643600Y11023600D01*
X17676021Y11023600D01*
X17625096Y10836247D01*
X17426904Y10836247D01*
X17375979Y11023600D01*
X16408400Y11023600D01*
X16103600Y11023600D01*
X15136021Y11023600D01*
X15085096Y10836247D01*
X14886904Y10836247D01*
X14835979Y11023600D01*
X13868400Y11023600D01*
X13563600Y11023600D01*
X12596021Y11023600D01*
X12545096Y10836247D01*
X12346904Y10836247D01*
X12295979Y11023600D01*
X11328400Y11023600D01*
X11023600Y11023600D01*
X10056021Y11023600D01*
X10005096Y10836247D01*
X9806904Y10836247D01*
X9755979Y11023600D01*
X8788400Y11023600D01*
X8483600Y11023600D01*
X7516021Y11023600D01*
X7465096Y10836247D01*
X7271505Y10836247D01*
X7339086Y11176000D01*
X7271506Y11515753D01*
X7465096Y11515753D01*
X7516021Y11328400D01*
X8483600Y11328400D01*
X8483600Y12296752D01*
X8788400Y12296752D01*
X8788400Y11328400D01*
X9755979Y11328400D01*
X9806904Y11515753D01*
X10005096Y11515753D01*
X10056021Y11328400D01*
X11023600Y11328400D01*
X11023600Y12296752D01*
X11328400Y12296752D01*
X11328400Y11328400D01*
X12295979Y11328400D01*
X12346904Y11515753D01*
X12545096Y11515753D01*
X12596021Y11328400D01*
X13563600Y11328400D01*
X13563600Y12296752D01*
X13868400Y12296752D01*
X13868400Y11328400D01*
X14835979Y11328400D01*
X14886904Y11515753D01*
X15085096Y11515753D01*
X15136021Y11328400D01*
X16103600Y11328400D01*
X16103600Y12296752D01*
X16408400Y12296752D01*
X16408400Y11328400D01*
X17375979Y11328400D01*
X17426904Y11515753D01*
X17625096Y11515753D01*
X17676021Y11328400D01*
X18643600Y11328400D01*
X18643600Y12296752D01*
X18948400Y12296752D01*
X18948400Y11328400D01*
X19915979Y11328400D01*
X19966904Y11515753D01*
X20165096Y11515753D01*
X20216021Y11328400D01*
X21183600Y11328400D01*
X21183600Y12296752D01*
X21488400Y12296752D01*
X21488400Y11328400D01*
X22455979Y11328400D01*
X22506904Y11515753D01*
X22705096Y11515753D01*
X22756021Y11328400D01*
X23723600Y11328400D01*
X23723600Y12296752D01*
X24028400Y12296752D01*
X24028400Y11328400D01*
X24995979Y11328400D01*
X25046904Y11515753D01*
X25245096Y11515753D01*
X25296021Y11328400D01*
X26263600Y11328400D01*
X26263600Y12296752D01*
X26568400Y12296752D01*
X26568400Y11328400D01*
X27535979Y11328400D01*
X27586904Y11515753D01*
X27785096Y11515753D01*
X27836021Y11328400D01*
X28803600Y11328400D01*
X28803600Y12296752D01*
X29108400Y12296752D01*
X29108400Y11328400D01*
X30075979Y11328400D01*
X30126904Y11515753D01*
X30024208Y11763721D01*
X29717984Y12127769D01*
X29295755Y12346919D01*
X29108400Y12296752D01*
X28803600Y12296752D01*
X28616245Y12346919D01*
X28194016Y12127769D01*
X27887792Y11763721D01*
X27785096Y11515753D01*
X27586904Y11515753D01*
X27484208Y11763721D01*
X27177984Y12127769D01*
X26755755Y12346919D01*
X26568400Y12296752D01*
X26263600Y12296752D01*
X26076245Y12346919D01*
X25654016Y12127769D01*
X25347792Y11763721D01*
X25245096Y11515753D01*
X25046904Y11515753D01*
X24944208Y11763721D01*
X24637984Y12127769D01*
X24215755Y12346919D01*
X24028400Y12296752D01*
X23723600Y12296752D01*
X23536245Y12346919D01*
X23114016Y12127769D01*
X22807792Y11763721D01*
X22705096Y11515753D01*
X22506904Y11515753D01*
X22404208Y11763721D01*
X22097984Y12127769D01*
X21675755Y12346919D01*
X21488400Y12296752D01*
X21183600Y12296752D01*
X20996245Y12346919D01*
X20574016Y12127769D01*
X20267792Y11763721D01*
X20165096Y11515753D01*
X19966904Y11515753D01*
X19864208Y11763721D01*
X19557984Y12127769D01*
X19135755Y12346919D01*
X18948400Y12296752D01*
X18643600Y12296752D01*
X18456245Y12346919D01*
X18034016Y12127769D01*
X17727792Y11763721D01*
X17625096Y11515753D01*
X17426904Y11515753D01*
X17324208Y11763721D01*
X17017984Y12127769D01*
X16595755Y12346919D01*
X16408400Y12296752D01*
X16103600Y12296752D01*
X15916245Y12346919D01*
X15494016Y12127769D01*
X15187792Y11763721D01*
X15085096Y11515753D01*
X14886904Y11515753D01*
X14784208Y11763721D01*
X14477984Y12127769D01*
X14055755Y12346919D01*
X13868400Y12296752D01*
X13563600Y12296752D01*
X13376245Y12346919D01*
X12954016Y12127769D01*
X12647792Y11763721D01*
X12545096Y11515753D01*
X12346904Y11515753D01*
X12244208Y11763721D01*
X11937984Y12127769D01*
X11515755Y12346919D01*
X11328400Y12296752D01*
X11023600Y12296752D01*
X10836245Y12346919D01*
X10414016Y12127769D01*
X10107792Y11763721D01*
X10005096Y11515753D01*
X9806904Y11515753D01*
X9704208Y11763721D01*
X9397984Y12127769D01*
X8975755Y12346919D01*
X8788400Y12296752D01*
X8483600Y12296752D01*
X8296245Y12346919D01*
X7874016Y12127769D01*
X7567792Y11763721D01*
X7465096Y11515753D01*
X7271506Y11515753D01*
X7246280Y11642568D01*
X6981991Y12038105D01*
X6586454Y12302394D01*
X6119886Y12395200D01*
X6072114Y12395200D01*
X5605546Y12302394D01*
X5210009Y12038105D01*
X4945720Y11642568D01*
X4852914Y11176000D01*
X4165600Y11176000D01*
X4165600Y12852400D01*
X30886400Y12852400D01*
X30886400Y9753600D01*
M02*
