G04 #@! TF.FileFunction,Copper,L1,Top,Signal*
%FSLAX46Y46*%
G04 Gerber Fmt 4.6, Leading zero omitted, Abs format (unit mm)*
G04 Created by KiCad (PCBNEW 4.0.1-stable) date 6/16/2016 1:06:08 PM*
%MOMM*%
G01*
G04 APERTURE LIST*
%ADD10C,0.100000*%
%ADD11R,1.524000X1.524000*%
%ADD12C,1.524000*%
%ADD13R,1.727200X1.727200*%
%ADD14O,1.727200X1.727200*%
%ADD15C,0.762000*%
%ADD16C,0.304800*%
%ADD17C,0.203200*%
G04 APERTURE END LIST*
D10*
D11*
X8636000Y2032000D03*
D12*
X11176000Y2032000D03*
X13716000Y2032000D03*
X16256000Y2032000D03*
X18796000Y2032000D03*
X21336000Y2032000D03*
D13*
X6096000Y8636000D03*
D14*
X6096000Y11176000D03*
X8636000Y8636000D03*
X8636000Y11176000D03*
X11176000Y8636000D03*
X11176000Y11176000D03*
X13716000Y8636000D03*
X13716000Y11176000D03*
X16256000Y8636000D03*
X16256000Y11176000D03*
X18796000Y8636000D03*
X18796000Y11176000D03*
X21336000Y8636000D03*
X21336000Y11176000D03*
X23876000Y8636000D03*
X23876000Y11176000D03*
X26416000Y8636000D03*
X26416000Y11176000D03*
X28956000Y8636000D03*
X28956000Y11176000D03*
D15*
X23876000Y3302000D03*
D16*
X11176000Y8636000D02*
X11176000Y2032000D01*
X8636000Y11176000D02*
X11176000Y11176000D01*
X11176000Y11176000D02*
X13716000Y11176000D01*
X13716000Y11176000D02*
X16256000Y11176000D01*
X16256000Y11176000D02*
X18796000Y11176000D01*
X18796000Y11176000D02*
X21336000Y11176000D01*
X21336000Y11176000D02*
X23876000Y11176000D01*
X23876000Y11176000D02*
X26416000Y11176000D01*
X26416000Y11176000D02*
X28956000Y11176000D01*
X11176000Y8636000D02*
X11176000Y11176000D01*
X11176000Y8636000D02*
X8636000Y8636000D01*
X8636000Y8636000D02*
X8636000Y11176000D01*
X13716000Y8636000D02*
X13716000Y2032000D01*
X16256000Y8636000D02*
X16256000Y2032000D01*
X23876000Y3302000D02*
X23876000Y8636000D01*
X21336000Y8636000D02*
X21336000Y2032000D01*
D17*
G36*
X7010400Y12657916D02*
X7010400Y11946572D01*
X6857984Y12127769D01*
X6435755Y12346919D01*
X6248400Y12296752D01*
X6248400Y11328400D01*
X6268400Y11328400D01*
X6268400Y11023600D01*
X6248400Y11023600D01*
X6248400Y10055248D01*
X6435755Y10005081D01*
X6857984Y10224231D01*
X7010400Y10405428D01*
X7010400Y9855200D01*
X6337300Y9855200D01*
X6248400Y9766300D01*
X6248400Y8788400D01*
X6268400Y8788400D01*
X6268400Y8483600D01*
X6248400Y8483600D01*
X6248400Y7505700D01*
X6337300Y7416800D01*
X7010400Y7416800D01*
X7010400Y6858000D01*
X7018405Y6818472D01*
X7040158Y6786158D01*
X9804400Y4021916D01*
X9804400Y863600D01*
X4106084Y863600D01*
X3911600Y1058084D01*
X3911600Y1790700D01*
X7518400Y1790700D01*
X7518400Y1199267D01*
X7572537Y1068569D01*
X7672569Y968537D01*
X7803267Y914400D01*
X8394700Y914400D01*
X8483600Y1003300D01*
X8483600Y1879600D01*
X8788400Y1879600D01*
X8788400Y1003300D01*
X8877300Y914400D01*
X9468733Y914400D01*
X9599431Y968537D01*
X9699463Y1068569D01*
X9753600Y1199267D01*
X9753600Y1790700D01*
X9664700Y1879600D01*
X8788400Y1879600D01*
X8483600Y1879600D01*
X7607300Y1879600D01*
X7518400Y1790700D01*
X3911600Y1790700D01*
X3911600Y2864733D01*
X7518400Y2864733D01*
X7518400Y2273300D01*
X7607300Y2184400D01*
X8483600Y2184400D01*
X8483600Y3060700D01*
X8788400Y3060700D01*
X8788400Y2184400D01*
X9664700Y2184400D01*
X9753600Y2273300D01*
X9753600Y2864733D01*
X9699463Y2995431D01*
X9599431Y3095463D01*
X9468733Y3149600D01*
X8877300Y3149600D01*
X8788400Y3060700D01*
X8483600Y3060700D01*
X8394700Y3149600D01*
X7803267Y3149600D01*
X7672569Y3095463D01*
X7572537Y2995431D01*
X7518400Y2864733D01*
X3911600Y2864733D01*
X3911600Y8394700D01*
X4876800Y8394700D01*
X4876800Y7701667D01*
X4930937Y7570969D01*
X5030969Y7470937D01*
X5161667Y7416800D01*
X5854700Y7416800D01*
X5943600Y7505700D01*
X5943600Y8483600D01*
X4965700Y8483600D01*
X4876800Y8394700D01*
X3911600Y8394700D01*
X3911600Y9570333D01*
X4876800Y9570333D01*
X4876800Y8877300D01*
X4965700Y8788400D01*
X5943600Y8788400D01*
X5943600Y9766300D01*
X5854700Y9855200D01*
X5161667Y9855200D01*
X5030969Y9801063D01*
X4930937Y9701031D01*
X4876800Y9570333D01*
X3911600Y9570333D01*
X3911600Y10836247D01*
X4925096Y10836247D01*
X5027792Y10588279D01*
X5334016Y10224231D01*
X5756245Y10005081D01*
X5943600Y10055248D01*
X5943600Y11023600D01*
X4976021Y11023600D01*
X4925096Y10836247D01*
X3911600Y10836247D01*
X3911600Y11515753D01*
X4925096Y11515753D01*
X4976021Y11328400D01*
X5943600Y11328400D01*
X5943600Y12296752D01*
X5756245Y12346919D01*
X5334016Y12127769D01*
X5027792Y11763721D01*
X4925096Y11515753D01*
X3911600Y11515753D01*
X3911600Y12911916D01*
X4106084Y13106400D01*
X6561916Y13106400D01*
X7010400Y12657916D01*
X7010400Y12657916D01*
G37*
X7010400Y12657916D02*
X7010400Y11946572D01*
X6857984Y12127769D01*
X6435755Y12346919D01*
X6248400Y12296752D01*
X6248400Y11328400D01*
X6268400Y11328400D01*
X6268400Y11023600D01*
X6248400Y11023600D01*
X6248400Y10055248D01*
X6435755Y10005081D01*
X6857984Y10224231D01*
X7010400Y10405428D01*
X7010400Y9855200D01*
X6337300Y9855200D01*
X6248400Y9766300D01*
X6248400Y8788400D01*
X6268400Y8788400D01*
X6268400Y8483600D01*
X6248400Y8483600D01*
X6248400Y7505700D01*
X6337300Y7416800D01*
X7010400Y7416800D01*
X7010400Y6858000D01*
X7018405Y6818472D01*
X7040158Y6786158D01*
X9804400Y4021916D01*
X9804400Y863600D01*
X4106084Y863600D01*
X3911600Y1058084D01*
X3911600Y1790700D01*
X7518400Y1790700D01*
X7518400Y1199267D01*
X7572537Y1068569D01*
X7672569Y968537D01*
X7803267Y914400D01*
X8394700Y914400D01*
X8483600Y1003300D01*
X8483600Y1879600D01*
X8788400Y1879600D01*
X8788400Y1003300D01*
X8877300Y914400D01*
X9468733Y914400D01*
X9599431Y968537D01*
X9699463Y1068569D01*
X9753600Y1199267D01*
X9753600Y1790700D01*
X9664700Y1879600D01*
X8788400Y1879600D01*
X8483600Y1879600D01*
X7607300Y1879600D01*
X7518400Y1790700D01*
X3911600Y1790700D01*
X3911600Y2864733D01*
X7518400Y2864733D01*
X7518400Y2273300D01*
X7607300Y2184400D01*
X8483600Y2184400D01*
X8483600Y3060700D01*
X8788400Y3060700D01*
X8788400Y2184400D01*
X9664700Y2184400D01*
X9753600Y2273300D01*
X9753600Y2864733D01*
X9699463Y2995431D01*
X9599431Y3095463D01*
X9468733Y3149600D01*
X8877300Y3149600D01*
X8788400Y3060700D01*
X8483600Y3060700D01*
X8394700Y3149600D01*
X7803267Y3149600D01*
X7672569Y3095463D01*
X7572537Y2995431D01*
X7518400Y2864733D01*
X3911600Y2864733D01*
X3911600Y8394700D01*
X4876800Y8394700D01*
X4876800Y7701667D01*
X4930937Y7570969D01*
X5030969Y7470937D01*
X5161667Y7416800D01*
X5854700Y7416800D01*
X5943600Y7505700D01*
X5943600Y8483600D01*
X4965700Y8483600D01*
X4876800Y8394700D01*
X3911600Y8394700D01*
X3911600Y9570333D01*
X4876800Y9570333D01*
X4876800Y8877300D01*
X4965700Y8788400D01*
X5943600Y8788400D01*
X5943600Y9766300D01*
X5854700Y9855200D01*
X5161667Y9855200D01*
X5030969Y9801063D01*
X4930937Y9701031D01*
X4876800Y9570333D01*
X3911600Y9570333D01*
X3911600Y10836247D01*
X4925096Y10836247D01*
X5027792Y10588279D01*
X5334016Y10224231D01*
X5756245Y10005081D01*
X5943600Y10055248D01*
X5943600Y11023600D01*
X4976021Y11023600D01*
X4925096Y10836247D01*
X3911600Y10836247D01*
X3911600Y11515753D01*
X4925096Y11515753D01*
X4976021Y11328400D01*
X5943600Y11328400D01*
X5943600Y12296752D01*
X5756245Y12346919D01*
X5334016Y12127769D01*
X5027792Y11763721D01*
X4925096Y11515753D01*
X3911600Y11515753D01*
X3911600Y12911916D01*
X4106084Y13106400D01*
X6561916Y13106400D01*
X7010400Y12657916D01*
M02*
