G04 #@! TF.FileFunction,Legend,Top*
%FSLAX46Y46*%
G04 Gerber Fmt 4.6, Leading zero omitted, Abs format (unit mm)*
G04 Created by KiCad (PCBNEW 4.0.1-stable) date 6/16/2016 1:06:08 PM*
%MOMM*%
G01*
G04 APERTURE LIST*
%ADD10C,0.100000*%
%ADD11C,0.150000*%
G04 APERTURE END LIST*
D10*
D11*
X9906000Y3302000D02*
X9906000Y762000D01*
X7366000Y3302000D02*
X22606000Y3302000D01*
X22606000Y3302000D02*
X22606000Y762000D01*
X22606000Y762000D02*
X7366000Y762000D01*
X7366000Y762000D02*
X7366000Y3302000D01*
X1016000Y14456000D02*
X34036000Y14456000D01*
X1556000Y13906000D02*
X33476000Y13906000D01*
X1016000Y5356000D02*
X34036000Y5356000D01*
X1556000Y5906000D02*
X15276000Y5906000D01*
X19776000Y5906000D02*
X33476000Y5906000D01*
X15276000Y5906000D02*
X15276000Y5356000D01*
X19776000Y5906000D02*
X19776000Y5356000D01*
X1016000Y14456000D02*
X1016000Y5356000D01*
X1556000Y13906000D02*
X1556000Y5906000D01*
X34036000Y14456000D02*
X34036000Y5356000D01*
X33476000Y13906000D02*
X33476000Y5906000D01*
X1016000Y14456000D02*
X1556000Y13906000D01*
X34036000Y14456000D02*
X33476000Y13906000D01*
X1016000Y5356000D02*
X1556000Y5906000D01*
X34036000Y5356000D02*
X33476000Y5906000D01*
X23137905Y1579619D02*
X23137905Y2579619D01*
X23518858Y2579619D01*
X23614096Y2532000D01*
X23661715Y2484381D01*
X23709334Y2389143D01*
X23709334Y2246286D01*
X23661715Y2151048D01*
X23614096Y2103429D01*
X23518858Y2055810D01*
X23137905Y2055810D01*
X24661715Y1579619D02*
X24090286Y1579619D01*
X24376000Y1579619D02*
X24376000Y2579619D01*
X24280762Y2436762D01*
X24185524Y2341524D01*
X24090286Y2293905D01*
X25423905Y3865619D02*
X25423905Y4865619D01*
X25804858Y4865619D01*
X25900096Y4818000D01*
X25947715Y4770381D01*
X25995334Y4675143D01*
X25995334Y4532286D01*
X25947715Y4437048D01*
X25900096Y4389429D01*
X25804858Y4341810D01*
X25423905Y4341810D01*
X26376286Y4770381D02*
X26423905Y4818000D01*
X26519143Y4865619D01*
X26757239Y4865619D01*
X26852477Y4818000D01*
X26900096Y4770381D01*
X26947715Y4675143D01*
X26947715Y4579905D01*
X26900096Y4437048D01*
X26328667Y3865619D01*
X26947715Y3865619D01*
M02*
